# xmcd
#
# Track frame offsets: 
#        150
#        12649
#        24050
#        36932
#        49431
#        62917
#        75900
#        89797
#        104397
#        119501
#        129665
#        140258
#        154440
#        169313
#        183006
#        196833
#        211388
#        223093
#        237456
#        242767
#        258330
#        271734
#        282558
#        294140
#        309799
#        324768
#        338318
#
# Disc length: 4684 seconds
#
# Revision: 0
# Processed by: cddbd v1.5.2PL0 Copyright (c) Steve Scherf et al.
# Submitted via: ExactAudioCopyFreeDBPlugin 1.0
#
DISCID=83124a1b
DTITLE=Various Artist - VA - Really the Blues - Disc 16
DYEAR=1900
DGENRE=30s
TTITLE0=Boots and His Buddies - The Wamp
TTITLE1=Smith and Harper - Poor Girl
TTITLE2=Mississippi Juke Band - Skippy Wippy
TTITLE3=Walter Coleman - I'm Goin' to Cincinnati
TTITLE4=Johnny Temple - Louise Louise
TTITLE5=Tune Wranglers - I'm Wild About That Thing
TTITLE6=Arthur Smith Trio - There's More Pretty Girls Than One
TTITLE7=Bill Carlisle - Bell Clappin' Mama
TTITLE8=Jimmy Revard - Blues in the Bottle
TTITLE9=Charlie Butler - Diamond Joe
TTITLE10=Lee O'Daniel and His Hillbilly Boys - Dirty Hangover Blues
TTITLE11=Peetie Wheatstraw - Crazy with the Blues
TTITLE12=Charlie Pickett - Down the Highway
TTITLE13=Django Reinhardt - Blues
TTITLE14=Sonny Boy Williamson - Good Morning Little School Girl
TTITLE15=Lil Armstrong and Joe Thomas - Bluer Than Blue
TTITLE16=Frankie Trumbauer and His Orchestra - Old Man River
TTITLE17=Count Basie - Good Morning Blues
TTITLE18=Jim Henry - I Don't Mind the Weather
TTITLE19=Teddy Wilson and Harry James - Just a Mood (Blue Mood)
TTITLE20=Addie Spivey - I Got a Man in the 'Bama Mines
TTITLE21=Swingbillies - Leavin' Home
TTITLE22=Smokey Wood - Woodchip Blues
TTITLE23=Boots and His Buddies - Blues of Avalon
TTITLE24=Dicky Wells - Dicky Wells' Blues
TTITLE25=Bunny Berigan - Blues
TTITLE26=Light Crust Doughboys - Dirty Dish Rag Blues
EXTD=
EXTT0=
EXTT1=
EXTT2=
EXTT3=
EXTT4=
EXTT5=
EXTT6=
EXTT7=
EXTT8=
EXTT9=
EXTT10=
EXTT11=
EXTT12=
EXTT13=
EXTT14=
EXTT15=
EXTT16=
EXTT17=
EXTT18=
EXTT19=
EXTT20=
EXTT21=
EXTT22=
EXTT23=
EXTT24=
EXTT25=
EXTT26=
PLAYORDER=
